<svg width="72" height="72" viewBox="0 0 12.8 12.8" fill="none" xmlns="http://www.w3.org/2000/svg"><path d="M7.2596 3.78732L8.8287 0H7.3239L6.7324 1.92267L6.1408 0H4.6361L6.2051 3.78732H7.2596Z" fill="#E19614"></path><path d="M6.2051 8.07416L4.6361 11.8615H6.1408L6.7324 9.93897L7.3239 11.8615H8.8287L7.2596 8.07416H6.2051Z" fill="#E19614"></path><path d="M4.5889 5.40345L0.8015 3.83446V5.33915L2.7241 5.93074L0.8015 6.52233V8.02705L4.5889 6.45803V5.40345Z" fill="#E19614"></path><path d="M12.6632 3.83446L8.8758 5.40345V6.45803L12.6632 8.02705V6.52233L10.7406 5.93074L12.6632 5.33915V3.83446Z" fill="#E19614"></path><path d="M4.8461 7.07319L1.0565 8.64435L2.1197 9.7075L3.8987 8.76442L2.9556 10.5434L4.0188 11.6066L5.5899 7.81699L4.8461 7.07319Z" fill="#E19614"></path><path d="M8.6186 4.78829L12.4082 3.21715L11.3451 2.154L9.566 3.09711L10.5091 1.31806L9.446 0.254909L7.8748 4.04452L8.6186 4.78829Z" fill="#E19614"></path><path d="M7.8748 7.81699L9.446 11.6066L10.5091 10.5434L9.566 8.76442L11.3451 9.7075L12.4082 8.64435L8.6186 7.07319L7.8748 7.81699Z" fill="#E19614"></path><path d="M5.5899 4.04452L4.0188 0.254909L2.9556 1.31806L3.8987 3.09711L2.1197 2.154L1.0565 3.21715L4.8461 4.78829L5.5899 4.04452Z" fill="#E19614"></path></svg>